<svg version="1.0" xmlns="http://www.w3.org/2000/svg"
 width="512.000000pt" height="512.000000pt" viewBox="0 0 512.000000 512.000000"
 preserveAspectRatio="xMidYMid meet">

<g transform="translate(0.000000,512.000000) scale(0.100000,-0.100000)"
fill="#2329c4" stroke="none">
<path d="M1489 4786 c-95 -25 -165 -82 -212 -170 -21 -39 -22 -54 -25 -328
l-3 -288 75 0 76 0 0 253 c0 242 1 255 23 297 12 25 37 55 56 67 33 23 39 23
331 23 l297 0 12 -55 c7 -30 21 -65 31 -77 l18 -23 392 0 392 0 18 23 c10 12
24 47 31 77 l12 55 297 0 c292 0 298 0 331 -23 19 -12 44 -42 57 -67 21 -42
22 -55 22 -297 l0 -253 75 0 75 0 0 270 c0 245 -2 274 -20 323 -29 76 -79 130
-158 169 l-67 33 -1045 2 c-807 1 -1055 -1 -1091 -11z"/>
<path d="M1233 3829 c-44 -13 -90 -62 -103 -109 -7 -26 -10 -236 -8 -622 3
-563 4 -584 23 -616 11 -18 36 -43 55 -55 34 -22 43 -22 530 -27 l495 -5 142
-108 c79 -59 154 -112 168 -119 35 -16 50 -7 218 119 l142 108 495 5 c472 5
497 6 528 25 18 11 43 36 55 55 22 35 22 36 22 640 0 604 0 605 -22 640 -12
19 -37 44 -55 55 -33 20 -52 20 -1343 22 -782 1 -1323 -2 -1342 -8z m766 -348
c65 -47 71 -75 71 -361 0 -286 -6 -314 -71 -361 -32 -23 -43 -24 -199 -27
-159 -3 -166 -2 -200 20 -19 13 -45 39 -57 57 -23 33 -23 39 -23 311 0 272 0
278 23 311 12 18 38 44 57 57 34 22 41 23 200 20 156 -3 167 -4 199 -27z m805
8 c34 -27 36 -82 4 -116 -19 -20 -31 -23 -95 -23 l-73 0 0 -285 0 -286 -25
-24 c-15 -16 -36 -25 -55 -25 -19 0 -40 9 -55 25 l-25 24 0 286 0 285 -73 0
c-65 0 -76 3 -97 25 -33 35 -31 81 4 112 27 23 31 23 245 23 206 0 220 -1 245
-21z m682 -14 c30 -19 60 -49 79 -79 26 -43 30 -59 30 -121 0 -62 -4 -78 -30
-120 -19 -31 -49 -61 -79 -80 -46 -28 -58 -30 -158 -33 l-108 -4 0 -125 c0
-124 0 -125 -29 -154 -18 -17 -40 -29 -56 -29 -16 0 -38 12 -56 29 l-29 29 0
327 c0 229 3 333 12 348 24 45 34 47 209 45 165 -3 166 -3 215 -33z"/>
<path d="M1680 3120 l0 -230 110 0 110 0 0 230 0 230 -110 0 -110 0 0 -230z"/>
<path d="M3220 3275 l0 -75 74 0 c41 0 86 4 101 10 57 22 52 109 -7 129 -17 6
-62 11 -99 11 l-69 0 0 -75z"/>
<path d="M1252 1393 l3 -848 29 -53 c36 -65 82 -107 156 -141 l55 -26 1065 0
1065 0 67 33 c79 39 129 93 158 169 19 52 20 77 20 883 l0 830 -75 0 -75 0 0
-560 0 -560 -1160 0 -1160 0 0 560 0 560 -75 0 -75 0 2 -847z m1683 -618 c16
-15 25 -36 25 -55 0 -19 -9 -40 -25 -55 l-24 -25 -351 0 -351 0 -24 25 c-16
15 -25 36 -25 55 0 19 9 40 25 55 l24 25 351 0 351 0 24 -25z"/>
<path d="M1710 1863 c-95 -49 -83 -183 20 -214 53 -16 107 10 134 65 17 36 18
43 5 79 -25 71 -96 102 -159 70z"/>
<path d="M2110 1863 c-95 -49 -83 -183 20 -214 53 -16 107 10 134 65 17 36 18
43 5 79 -25 71 -96 102 -159 70z"/>
<path d="M2510 1863 c-95 -49 -83 -183 20 -214 53 -16 107 10 134 65 17 36 18
43 5 79 -25 71 -96 102 -159 70z"/>
<path d="M2910 1863 c-95 -49 -83 -183 20 -214 53 -16 107 10 134 65 17 36 18
43 5 79 -25 71 -96 102 -159 70z"/>
<path d="M3310 1863 c-95 -49 -83 -183 20 -214 53 -16 107 10 134 65 17 36 18
43 5 79 -25 71 -96 102 -159 70z"/>
</g>
</svg>
